<svg width="737" height="92" viewBox="0 0 737 92" fill="none" xmlns="http://www.w3.org/2000/svg">
<path d="M36.438 91.512C29.382 91.512 22.62 90.588 16.152 88.74C9.684 86.808 4.476 84.33 0.528 81.306L7.458 65.934C11.238 68.622 15.69 70.848 20.814 72.612C26.022 74.292 31.272 75.132 36.564 75.132C40.596 75.132 43.83 74.754 46.266 73.998C48.786 73.158 50.634 72.024 51.81 70.596C52.986 69.168 53.574 67.53 53.574 65.682C53.574 63.33 52.65 61.482 50.802 60.138C48.954 58.71 46.518 57.576 43.494 56.736C40.47 55.812 37.11 54.972 33.414 54.216C29.802 53.376 26.148 52.368 22.452 51.192C18.84 50.016 15.522 48.504 12.498 46.656C9.474 44.808 6.996 42.372 5.064 39.348C3.216 36.324 2.292 32.46 2.292 27.756C2.292 22.716 3.636 18.138 6.324 14.022C9.096 9.82199 13.212 6.50399 18.672 4.06799C24.216 1.548 31.146 0.287998 39.462 0.287998C45.006 0.287998 50.466 0.959997 55.842 2.304C61.218 3.56399 65.964 5.49599 70.08 8.1L63.78 23.598C59.664 21.246 55.548 19.524 51.432 18.432C47.316 17.256 43.284 16.668 39.336 16.668C35.388 16.668 32.154 17.13 29.634 18.054C27.114 18.978 25.308 20.196 24.216 21.708C23.124 23.136 22.578 24.816 22.578 26.748C22.578 29.016 23.502 30.864 25.35 32.292C27.198 33.636 29.634 34.728 32.658 35.568C35.682 36.408 39 37.248 42.612 38.088C46.308 38.928 49.962 39.894 53.574 40.986C57.27 42.078 60.63 43.548 63.654 45.396C66.678 47.244 69.114 49.68 70.962 52.704C72.894 55.728 73.86 59.55 73.86 64.17C73.86 69.126 72.474 73.662 69.702 77.778C66.93 81.894 62.772 85.212 57.228 87.732C51.768 90.252 44.838 91.512 36.438 91.512ZM106.582 37.332H149.044V53.208H106.582V37.332ZM108.094 73.62H156.1V90H87.8076V1.79999H154.462V18.18H108.094V73.62ZM191.115 37.332H233.577V53.208H191.115V37.332ZM192.627 73.62H240.633V90H172.341V1.79999H238.995V18.18H192.627V73.62ZM256.874 90V1.79999H273.758L325.796 65.304H317.606V1.79999H337.766V90H321.008L268.844 26.496H277.034V90H256.874ZM400.844 91.512C394.04 91.512 387.698 90.42 381.818 88.236C376.022 85.968 370.982 82.776 366.698 78.66C362.414 74.544 359.054 69.714 356.618 64.17C354.266 58.626 353.09 52.536 353.09 45.9C353.09 39.264 354.266 33.174 356.618 27.63C359.054 22.086 362.414 17.256 366.698 13.14C371.066 9.024 376.148 5.87399 381.944 3.68999C387.74 1.422 394.082 0.287998 400.97 0.287998C408.614 0.287998 415.502 1.632 421.634 4.32C427.85 6.924 433.058 10.788 437.258 15.912L424.154 28.008C421.13 24.564 417.77 22.002 414.074 20.322C410.378 18.558 406.346 17.676 401.978 17.676C397.862 17.676 394.082 18.348 390.638 19.692C387.194 21.036 384.212 22.968 381.692 25.488C379.172 28.008 377.198 30.99 375.77 34.434C374.426 37.878 373.754 41.7 373.754 45.9C373.754 50.1 374.426 53.922 375.77 57.366C377.198 60.81 379.172 63.792 381.692 66.312C384.212 68.832 387.194 70.764 390.638 72.108C394.082 73.452 397.862 74.124 401.978 74.124C406.346 74.124 410.378 73.284 414.074 71.604C417.77 69.84 421.13 67.194 424.154 63.666L437.258 75.762C433.058 80.886 427.85 84.792 421.634 87.48C415.502 90.168 408.572 91.512 400.844 91.512ZM511.522 1.79999H531.934V90H511.522V1.79999ZM471.454 90H451.042V1.79999H471.454V90ZM513.034 53.838H469.942V36.576H513.034V53.838ZM552.802 90V1.79999H590.98C598.876 1.79999 605.68 3.10199 611.392 5.706C617.104 8.22599 621.514 11.88 624.622 16.668C627.73 21.456 629.284 27.168 629.284 33.804C629.284 40.356 627.73 46.026 624.622 50.814C621.514 55.518 617.104 59.13 611.392 61.65C605.68 64.17 598.876 65.43 590.98 65.43H564.142L573.214 56.484V90H552.802ZM608.872 90L586.822 57.996H608.62L630.922 90H608.872ZM573.214 58.752L564.142 49.176H589.846C596.146 49.176 600.85 47.832 603.958 45.144C607.066 42.372 608.62 38.592 608.62 33.804C608.62 28.932 607.066 25.152 603.958 22.464C600.85 19.776 596.146 18.432 589.846 18.432H564.142L573.214 8.72999V58.752ZM688.296 91.512C681.324 91.512 674.856 90.378 668.892 88.11C663.012 85.842 657.888 82.65 653.52 78.534C649.236 74.418 645.876 69.588 643.44 64.044C641.088 58.5 639.912 52.452 639.912 45.9C639.912 39.348 641.088 33.3 643.44 27.756C645.876 22.212 649.278 17.382 653.646 13.266C658.014 9.14999 663.138 5.95799 669.018 3.68999C674.898 1.422 681.282 0.287998 688.17 0.287998C695.142 0.287998 701.526 1.422 707.322 3.68999C713.202 5.95799 718.284 9.14999 722.568 13.266C726.936 17.382 730.338 22.212 732.774 27.756C735.21 33.216 736.428 39.264 736.428 45.9C736.428 52.452 735.21 58.542 732.774 64.17C730.338 69.714 726.936 74.544 722.568 78.66C718.284 82.692 713.202 85.842 707.322 88.11C701.526 90.378 695.184 91.512 688.296 91.512ZM688.17 74.124C692.118 74.124 695.73 73.452 699.006 72.108C702.366 70.764 705.306 68.832 707.826 66.312C710.346 63.792 712.278 60.81 713.622 57.366C715.05 53.922 715.764 50.1 715.764 45.9C715.764 41.7 715.05 37.878 713.622 34.434C712.278 30.99 710.346 28.008 707.826 25.488C705.39 22.968 702.492 21.036 699.132 19.692C695.772 18.348 692.118 17.676 688.17 17.676C684.222 17.676 680.568 18.348 677.208 19.692C673.932 21.036 671.034 22.968 668.514 25.488C665.994 28.008 664.02 30.99 662.592 34.434C661.248 37.878 660.576 41.7 660.576 45.9C660.576 50.016 661.248 53.838 662.592 57.366C664.02 60.81 665.952 63.792 668.388 66.312C670.908 68.832 673.848 70.764 677.208 72.108C680.568 73.452 684.222 74.124 688.17 74.124Z" fill="white"/>
<path d="M16.152 88.74L15.8658 89.6982L15.8773 89.7015L16.152 88.74ZM0.528 81.306L-0.383642 80.895L-0.70948 81.6178L-0.0800768 82.0999L0.528 81.306ZM7.458 65.934L8.03752 65.119L7.04626 64.4141L6.54636 65.523L7.458 65.934ZM20.814 72.612L20.4885 73.5575L20.4977 73.5607L20.507 73.5637L20.814 72.612ZM46.266 73.998L46.5624 74.9531L46.5724 74.95L46.5822 74.9467L46.266 73.998ZM51.81 70.596L51.0381 69.9603L51.0381 69.9603L51.81 70.596ZM50.802 60.138L50.1906 60.9293L50.2021 60.9382L50.2138 60.9467L50.802 60.138ZM43.494 56.736L43.2018 57.6924L43.214 57.6961L43.2264 57.6995L43.494 56.736ZM33.414 54.216L33.1875 55.19L33.2005 55.193L33.2136 55.1957L33.414 54.216ZM22.452 51.192L22.1424 52.1429L22.1488 52.1449L22.452 51.192ZM12.498 46.656L11.9766 47.5093L11.9766 47.5093L12.498 46.656ZM5.064 39.348L4.21072 39.8694L4.21593 39.878L4.2213 39.8864L5.064 39.348ZM6.324 14.022L5.48938 13.4711L5.48673 13.4752L6.324 14.022ZM18.672 4.06799L19.0795 4.98125L19.0858 4.97836L18.672 4.06799ZM55.842 2.304L55.5995 3.27414L55.6066 3.27593L55.6138 3.27761L55.842 2.304ZM70.08 8.1L71.0064 8.47657L71.3213 7.70196L70.6146 7.25492L70.08 8.1ZM63.78 23.598L63.2839 24.4662L64.2761 25.0332L64.7064 23.9746L63.78 23.598ZM51.432 18.432L51.1573 19.3935L51.1664 19.3961L51.1756 19.3986L51.432 18.432ZM29.634 18.054L29.2897 17.1151L29.2897 17.1151L29.634 18.054ZM24.216 21.708L25.0104 22.3154L25.0187 22.3046L25.0267 22.2935L24.216 21.708ZM25.35 32.292L24.7386 33.0833L24.7501 33.0922L24.7618 33.1007L25.35 32.292ZM32.658 35.568L32.3904 36.5315L32.3904 36.5315L32.658 35.568ZM42.612 38.088L42.3855 39.062L42.3904 39.0631L42.612 38.088ZM53.574 40.986L53.2846 41.9432L53.2907 41.945L53.574 40.986ZM63.654 45.396L64.1755 44.5427L64.1755 44.5427L63.654 45.396ZM70.962 52.704L70.1087 53.2254L70.1139 53.234L70.1193 53.2424L70.962 52.704ZM69.702 77.778L70.5314 78.3366L70.5314 78.3366L69.702 77.778ZM57.228 87.732L56.8142 86.8216L56.8089 86.824L57.228 87.732ZM36.438 90.512C29.4704 90.512 22.8011 89.5997 16.4267 87.7785L15.8773 89.7015C22.4389 91.5763 29.2936 92.512 36.438 92.512V90.512ZM16.4382 87.7818C10.0477 85.873 4.95996 83.4411 1.13608 80.5121L-0.0800768 82.0999C3.99204 85.2189 9.32032 87.743 15.8658 89.6982L16.4382 87.7818ZM1.43964 81.717L8.36964 66.345L6.54636 65.523L-0.383642 80.895L1.43964 81.717ZM6.87848 66.749C10.7483 69.5008 15.2888 71.7675 20.4885 73.5575L21.1395 71.6665C16.0912 69.9285 11.7277 67.7432 8.03752 65.119L6.87848 66.749ZM20.507 73.5637C25.8108 75.2746 31.1643 76.132 36.564 76.132V74.132C31.3798 74.132 26.2332 73.3094 21.121 71.6603L20.507 73.5637ZM36.564 76.132C40.6453 76.132 43.9914 75.7509 46.5624 74.9531L45.9696 73.0429C43.6686 73.7571 40.5467 74.132 36.564 74.132V76.132ZM46.5822 74.9467C49.2068 74.0718 51.2452 72.8549 52.5819 71.2317L51.0381 69.9603C50.0228 71.1931 48.3652 72.2442 45.9498 73.0493L46.5822 74.9467ZM52.5819 71.2317C53.9052 69.6249 54.574 67.7622 54.574 65.682H52.574C52.574 67.2978 52.0668 68.7111 51.0381 69.9603L52.5819 71.2317ZM54.574 65.682C54.574 63.0211 53.5058 60.8679 51.3902 59.3293L50.2138 60.9467C51.7943 62.0961 52.574 63.6389 52.574 65.682H54.574ZM51.4134 59.3467C49.4344 57.8175 46.8699 56.6359 43.7616 55.7725L43.2264 57.6995C46.1661 58.5161 48.4736 59.6025 50.1906 60.9293L51.4134 59.3467ZM43.7862 55.7796C40.7269 54.8449 37.3357 53.9975 33.6144 53.2363L33.2136 55.1957C36.8843 55.9465 40.2131 56.7791 43.2018 57.6924L43.7862 55.7796ZM33.6405 53.242C30.0555 52.4083 26.4271 51.4074 22.7552 50.2391L22.1488 52.1449C25.8689 53.3286 29.5485 54.3437 33.1875 55.19L33.6405 53.242ZM22.7616 50.2411C19.2185 49.0876 15.9723 47.6072 13.0195 45.8027L11.9766 47.5093C15.0717 49.4008 18.4615 50.9444 22.1424 52.1429L22.7616 50.2411ZM13.0195 45.8027C10.1267 44.0349 7.75798 41.7073 5.9067 38.8096L4.2213 39.8864C6.23402 43.0367 8.82127 45.581 11.9766 47.5093L13.0195 45.8027ZM5.91728 38.8265C4.19178 36.003 3.292 32.3346 3.292 27.756H1.292C1.292 32.5854 2.24022 36.645 4.21072 39.8694L5.91728 38.8265ZM3.292 27.756C3.292 22.905 4.58226 18.5179 7.16127 14.5688L5.48673 13.4752C2.68974 17.7581 1.292 22.527 1.292 27.756H3.292ZM7.15861 14.5728C9.8073 10.5597 13.7603 7.35439 19.0794 4.98123L18.2646 3.15476C12.6637 5.6536 8.38471 9.08431 5.48939 13.4712L7.15861 14.5728ZM19.0858 4.97836C24.4615 2.53486 31.2396 1.288 39.462 1.288V-0.712002C31.0524 -0.712002 23.9705 0.561133 18.2582 3.15763L19.0858 4.97836ZM39.462 1.288C44.9243 1.288 50.3028 1.94998 55.5995 3.27414L56.0845 1.33385C50.6292 -0.0299846 45.0877 -0.712002 39.462 -0.712002V1.288ZM55.6138 3.27761C60.8955 4.51552 65.5353 6.4081 69.5454 8.94507L70.6146 7.25492C66.3927 4.58388 61.5405 2.61247 56.0702 1.33038L55.6138 3.27761ZM69.1536 7.72342L62.8536 23.2214L64.7064 23.9746L71.0064 8.47657L69.1536 7.72342ZM64.2761 22.7298C60.0932 20.3395 55.8971 18.582 51.6884 17.4654L51.1756 19.3986C55.1989 20.466 59.2348 22.1525 63.2839 24.4662L64.2761 22.7298ZM51.7067 17.4705C47.5089 16.2711 43.3844 15.668 39.336 15.668V17.668C43.1836 17.668 47.1231 18.2409 51.1573 19.3935L51.7067 17.4705ZM39.336 15.668C35.3207 15.668 31.9589 16.1364 29.2897 17.1151L29.9783 18.9929C32.3491 18.1236 35.4553 17.668 39.336 17.668V15.668ZM29.2897 17.1151C26.661 18.079 24.6549 19.3923 23.4053 21.1225L25.0267 22.2935C25.9611 20.9997 27.567 19.877 29.9783 18.9929L29.2897 17.1151ZM23.4216 21.1005C22.186 22.7163 21.578 24.6139 21.578 26.748H23.578C23.578 25.0181 24.062 23.5556 25.0104 22.3154L23.4216 21.1005ZM21.578 26.748C21.578 29.3363 22.654 31.4725 24.7386 33.0833L25.9614 31.5007C24.35 30.2555 23.578 28.6957 23.578 26.748H21.578ZM24.7618 33.1007C26.7353 34.536 29.2912 35.6706 32.3904 36.5315L32.9256 34.6045C29.9768 33.7854 27.6607 32.736 25.9382 31.4833L24.7618 33.1007ZM32.3904 36.5315C35.4302 37.3759 38.7621 38.2194 42.3855 39.062L42.8385 37.114C39.2379 36.2766 35.9338 35.4401 32.9256 34.6045L32.3904 36.5315ZM42.3904 39.0631C46.0637 39.898 49.6951 40.858 53.2846 41.9432L53.8634 40.0288C50.2289 38.93 46.5523 37.958 42.8336 37.1129L42.3904 39.0631ZM53.2907 41.945C56.9103 43.0144 60.1892 44.4505 63.1326 46.2493L64.1755 44.5427C61.0709 42.6455 57.6297 41.1415 53.8574 40.027L53.2907 41.945ZM63.1326 46.2493C66.0212 48.0146 68.3434 50.3368 70.1087 53.2254L71.8153 52.1825C69.8846 49.0232 67.3348 46.4734 64.1755 44.5427L63.1326 46.2493ZM70.1193 53.2424C71.9229 56.0654 72.86 59.6866 72.86 64.17H74.86C74.86 59.4134 73.8651 55.3906 71.8047 52.1656L70.1193 53.2424ZM72.86 64.17C72.86 68.9267 71.5335 73.2682 68.8726 77.2194L70.5314 78.3366C73.4145 74.0557 74.86 69.3253 74.86 64.17H72.86ZM68.8726 77.2194C66.2251 81.1505 62.228 84.3608 56.8142 86.8216L57.6418 88.6424C63.316 86.0632 67.6349 82.6375 70.5314 78.3366L68.8726 77.2194ZM56.8089 86.824C51.5216 89.2643 44.747 90.512 36.438 90.512V92.512C44.929 92.512 52.0144 91.2397 57.6471 88.64L56.8089 86.824ZM106.582 37.332V36.332H105.582V37.332H106.582ZM149.044 37.332H150.044V36.332H149.044V37.332ZM149.044 53.208V54.208H150.044V53.208H149.044ZM106.582 53.208H105.582V54.208H106.582V53.208ZM108.094 73.62H107.094V74.62H108.094V73.62ZM156.1 73.62H157.1V72.62H156.1V73.62ZM156.1 90V91H157.1V90H156.1ZM87.8076 90H86.8076V91H87.8076V90ZM87.8076 1.79999V0.799994H86.8076V1.79999H87.8076ZM154.462 1.79999H155.462V0.799994H154.462V1.79999ZM154.462 18.18V19.18H155.462V18.18H154.462ZM108.094 18.18V17.18H107.094V18.18H108.094ZM106.582 38.332H149.044V36.332H106.582V38.332ZM148.044 37.332V53.208H150.044V37.332H148.044ZM149.044 52.208H106.582V54.208H149.044V52.208ZM107.582 53.208V37.332H105.582V53.208H107.582ZM108.094 74.62H156.1V72.62H108.094V74.62ZM155.1 73.62V90H157.1V73.62H155.1ZM156.1 89H87.8076V91H156.1V89ZM88.8076 90V1.79999H86.8076V90H88.8076ZM87.8076 2.79999H154.462V0.799994H87.8076V2.79999ZM153.462 1.79999V18.18H155.462V1.79999H153.462ZM154.462 17.18H108.094V19.18H154.462V17.18ZM107.094 18.18V73.62H109.094V18.18H107.094ZM191.115 37.332V36.332H190.115V37.332H191.115ZM233.577 37.332H234.577V36.332H233.577V37.332ZM233.577 53.208V54.208H234.577V53.208H233.577ZM191.115 53.208H190.115V54.208H191.115V53.208ZM192.627 73.62H191.627V74.62H192.627V73.62ZM240.633 73.62H241.633V72.62H240.633V73.62ZM240.633 90V91H241.633V90H240.633ZM172.341 90H171.341V91H172.341V90ZM172.341 1.79999V0.799994H171.341V1.79999H172.341ZM238.995 1.79999H239.995V0.799994H238.995V1.79999ZM238.995 18.18V19.18H239.995V18.18H238.995ZM192.627 18.18V17.18H191.627V18.18H192.627ZM191.115 38.332H233.577V36.332H191.115V38.332ZM232.577 37.332V53.208H234.577V37.332H232.577ZM233.577 52.208H191.115V54.208H233.577V52.208ZM192.115 53.208V37.332H190.115V53.208H192.115ZM192.627 74.62H240.633V72.62H192.627V74.62ZM239.633 73.62V90H241.633V73.62H239.633ZM240.633 89H172.341V91H240.633V89ZM173.341 90V1.79999H171.341V90H173.341ZM172.341 2.79999H238.995V0.799994H172.341V2.79999ZM237.995 1.79999V18.18H239.995V1.79999H237.995ZM238.995 17.18H192.627V19.18H238.995V17.18ZM191.627 18.18V73.62H193.627V18.18H191.627ZM256.874 90H255.874V91H256.874V90ZM256.874 1.79999V0.799994H255.874V1.79999H256.874ZM273.758 1.79999L274.531 1.16617L274.231 0.799994H273.758V1.79999ZM325.796 65.304V66.304H327.908L326.57 64.6702L325.796 65.304ZM317.606 65.304H316.606V66.304H317.606V65.304ZM317.606 1.79999V0.799994H316.606V1.79999H317.606ZM337.766 1.79999H338.766V0.799994H337.766V1.79999ZM337.766 90V91H338.766V90H337.766ZM321.008 90L320.235 90.6347L320.535 91H321.008V90ZM268.844 26.496V25.496H266.728L268.071 27.1307L268.844 26.496ZM277.034 26.496H278.034V25.496H277.034V26.496ZM277.034 90V91H278.034V90H277.034ZM257.874 90V1.79999H255.874V90H257.874ZM256.874 2.79999H273.758V0.799994H256.874V2.79999ZM272.985 2.43382L325.023 65.9378L326.57 64.6702L274.531 1.16617L272.985 2.43382ZM325.796 64.304H317.606V66.304H325.796V64.304ZM318.606 65.304V1.79999H316.606V65.304H318.606ZM317.606 2.79999H337.766V0.799994H317.606V2.79999ZM336.766 1.79999V90H338.766V1.79999H336.766ZM337.766 89H321.008V91H337.766V89ZM321.781 89.3653L269.617 25.8613L268.071 27.1307L320.235 90.6347L321.781 89.3653ZM268.844 27.496H277.034V25.496H268.844V27.496ZM276.034 26.496V90H278.034V26.496H276.034ZM277.034 89H256.874V91H277.034V89ZM381.818 88.236L381.453 89.1672L381.461 89.1704L381.47 89.1734L381.818 88.236ZM366.698 78.66L366.005 79.3811L366.005 79.3811L366.698 78.66ZM356.618 64.17L355.697 64.5606L355.702 64.5723L356.618 64.17ZM356.618 27.63L355.702 27.2277L355.697 27.2394L356.618 27.63ZM366.698 13.14L366.012 12.4122L366.005 12.4189L366.698 13.14ZM381.944 3.68999L382.296 4.62584L382.308 4.62124L381.944 3.68999ZM421.634 4.32L421.232 5.23587L421.24 5.23916L421.247 5.24234L421.634 4.32ZM437.258 15.912L437.936 16.6468L438.629 16.0073L438.031 15.2781L437.258 15.912ZM424.154 28.008L423.402 28.6678L424.079 29.4382L424.832 28.7428L424.154 28.008ZM414.074 20.322L413.643 21.2245L413.651 21.2285L413.66 21.2324L414.074 20.322ZM381.692 25.488L382.399 26.1951L382.399 26.1951L381.692 25.488ZM375.77 34.434L374.846 34.051L374.842 34.0607L374.838 34.0705L375.77 34.434ZM375.77 57.366L374.838 57.7295L374.842 57.7393L374.846 57.749L375.77 57.366ZM381.692 66.312L380.985 67.0191L380.985 67.0191L381.692 66.312ZM414.074 71.604L414.488 72.5144L414.496 72.5105L414.505 72.5065L414.074 71.604ZM424.154 63.666L424.832 62.9312L424.07 62.2275L423.395 63.0152L424.154 63.666ZM437.258 75.762L438.031 76.3959L438.629 75.6667L437.936 75.0272L437.258 75.762ZM421.634 87.48L421.237 86.5621L421.232 86.5641L421.634 87.48ZM400.844 90.512C394.149 90.512 387.925 89.4378 382.166 87.2986L381.47 89.1734C387.47 91.4022 393.931 92.512 400.844 92.512V90.512ZM382.182 87.3048C376.502 85.0823 371.576 81.9597 367.391 77.9389L366.005 79.3811C370.388 83.5923 375.541 86.8537 381.453 89.1672L382.182 87.3048ZM367.391 77.9389C363.203 73.9153 359.918 69.1943 357.533 63.7677L355.702 64.5723C358.19 70.2337 361.625 75.1726 366.005 79.3811L367.391 77.9389ZM357.538 63.7794C355.244 58.371 354.09 52.4155 354.09 45.9H352.09C352.09 52.6565 353.288 58.881 355.697 64.5605L357.538 63.7794ZM354.09 45.9C354.09 39.3845 355.244 33.429 357.538 28.0205L355.697 27.2394C353.288 32.919 352.09 39.1435 352.09 45.9H354.09ZM357.533 28.0323C359.918 22.6057 363.203 17.8846 367.391 13.8611L366.005 12.4189C361.625 16.6273 358.19 21.5663 355.702 27.2277L357.533 28.0323ZM367.384 13.8678C371.652 9.84538 376.62 6.76467 382.296 4.62576L381.591 2.75422C375.675 4.98332 370.479 8.20262 366.012 12.4122L367.384 13.8678ZM382.308 4.62124C387.976 2.40328 394.193 1.288 400.97 1.288V-0.712002C393.97 -0.712002 387.503 0.440711 381.579 2.75875L382.308 4.62124ZM400.97 1.288C408.495 1.288 415.244 2.61068 421.232 5.23587L422.035 3.40413C415.76 0.653313 408.732 -0.712002 400.97 -0.712002V1.288ZM421.247 5.24234C427.315 7.78437 432.39 11.5505 436.484 16.5459L438.031 15.2781C433.726 10.0255 428.384 6.06362 422.02 3.39766L421.247 5.24234ZM436.58 15.1772L423.476 27.2732L424.832 28.7428L437.936 16.6468L436.58 15.1772ZM424.905 27.3482C421.8 23.8114 418.328 21.1574 414.488 19.4116L413.66 21.2324C417.211 22.8466 420.46 25.3166 423.402 28.6678L424.905 27.3482ZM414.505 19.4195C410.665 17.5871 406.485 16.676 401.978 16.676V18.676C406.207 18.676 410.09 19.5289 413.643 21.2245L414.505 19.4195ZM401.978 16.676C397.751 16.676 393.847 17.3664 390.274 18.7604L391.001 20.6236C394.317 19.3296 397.972 18.676 401.978 18.676V16.676ZM390.274 18.7604C386.706 20.1528 383.606 22.1594 380.985 24.7809L382.399 26.1951C384.817 23.7765 387.681 21.9192 391.001 20.6236L390.274 18.7604ZM380.985 24.7809C378.368 27.3979 376.322 30.4915 374.846 34.051L376.694 34.817C378.074 31.4885 379.976 28.6181 382.399 26.1951L380.985 24.7809ZM374.838 34.0705C373.443 37.645 372.754 41.5924 372.754 45.9H374.754C374.754 41.8076 375.408 38.111 376.701 34.7975L374.838 34.0705ZM372.754 45.9C372.754 50.2076 373.443 54.155 374.838 57.7295L376.701 57.0025C375.408 53.689 374.754 49.9924 374.754 45.9H372.754ZM374.846 57.749C376.322 61.3085 378.368 64.4021 380.985 67.0191L382.399 65.6049C379.976 63.1819 378.074 60.3115 376.694 56.983L374.846 57.749ZM380.985 67.0191C383.606 69.6405 386.706 71.6472 390.274 73.0396L391.001 71.1764C387.681 69.8808 384.817 68.0235 382.399 65.6049L380.985 67.0191ZM390.274 73.0396C393.847 74.4336 397.751 75.124 401.978 75.124V73.124C397.972 73.124 394.317 72.4704 391.001 71.1764L390.274 73.0396ZM401.978 75.124C406.478 75.124 410.652 74.2578 414.488 72.5144L413.66 70.6936C410.104 72.3102 406.214 73.124 401.978 73.124V75.124ZM414.505 72.5065C418.342 70.6748 421.81 67.9364 424.913 64.3168L423.395 63.0152C420.449 66.4516 417.197 69.0052 413.643 70.7015L414.505 72.5065ZM423.476 64.4008L436.58 76.4968L437.936 75.0272L424.832 62.9312L423.476 64.4008ZM436.484 75.1281C432.388 80.126 427.31 83.936 421.237 86.5621L422.031 88.3979C428.39 85.648 433.728 81.646 438.031 76.3959L436.484 75.1281ZM421.232 86.5641C415.245 89.1887 408.455 90.512 400.844 90.512V92.512C408.689 92.512 415.759 91.1473 422.035 88.3959L421.232 86.5641ZM511.522 1.79999V0.799994H510.522V1.79999H511.522ZM531.934 1.79999H532.934V0.799994H531.934V1.79999ZM531.934 90V91H532.934V90H531.934ZM511.522 90H510.522V91H511.522V90ZM471.454 90V91H472.454V90H471.454ZM451.042 90H450.042V91H451.042V90ZM451.042 1.79999V0.799994H450.042V1.79999H451.042ZM471.454 1.79999H472.454V0.799994H471.454V1.79999ZM513.034 53.838V54.838H514.034V53.838H513.034ZM469.942 53.838H468.942V54.838H469.942V53.838ZM469.942 36.576V35.576H468.942V36.576H469.942ZM513.034 36.576H514.034V35.576H513.034V36.576ZM511.522 2.79999H531.934V0.799994H511.522V2.79999ZM530.934 1.79999V90H532.934V1.79999H530.934ZM531.934 89H511.522V91H531.934V89ZM512.522 90V1.79999H510.522V90H512.522ZM471.454 89H451.042V91H471.454V89ZM452.042 90V1.79999H450.042V90H452.042ZM451.042 2.79999H471.454V0.799994H451.042V2.79999ZM470.454 1.79999V90H472.454V1.79999H470.454ZM513.034 52.838H469.942V54.838H513.034V52.838ZM470.942 53.838V36.576H468.942V53.838H470.942ZM469.942 37.576H513.034V35.576H469.942V37.576ZM512.034 36.576V53.838H514.034V36.576H512.034ZM552.802 90H551.802V91H552.802V90ZM552.802 1.79999V0.799994H551.802V1.79999H552.802ZM611.392 5.706L610.977 6.61597L610.988 6.62091L611.392 5.706ZM624.622 16.668L623.783 17.2125L623.783 17.2125L624.622 16.668ZM624.622 50.814L625.456 51.3653L625.461 51.3585L624.622 50.814ZM611.392 61.65L611.795 62.5649L611.795 62.5649L611.392 61.65ZM564.142 65.43L563.44 64.718L561.703 66.43H564.142V65.43ZM573.214 56.484H574.214V54.0935L572.512 55.772L573.214 56.484ZM573.214 90V91H574.214V90H573.214ZM608.872 90L608.048 90.5674L608.346 91H608.872V90ZM586.822 57.996V56.996H584.918L585.998 58.5634L586.822 57.996ZM608.62 57.996L609.44 57.4243L609.142 56.996H608.62V57.996ZM630.922 90V91H632.837L631.742 89.4283L630.922 90ZM573.214 58.752L572.488 59.4397L574.214 61.2616V58.752H573.214ZM564.142 49.176V48.176H561.817L563.416 49.8637L564.142 49.176ZM603.958 45.144L604.612 45.9004L604.618 45.8954L604.623 45.8903L603.958 45.144ZM564.142 18.432L563.411 17.749L561.838 19.432H564.142V18.432ZM573.214 8.72999H574.214V6.19641L572.483 8.047L573.214 8.72999ZM553.802 90V1.79999H551.802V90H553.802ZM552.802 2.79999H590.98V0.799994H552.802V2.79999ZM590.98 2.79999C598.768 2.79999 605.424 4.0845 610.977 6.6159L611.807 4.79609C605.935 2.11949 598.983 0.799994 590.98 0.799994V2.79999ZM610.988 6.62091C616.539 9.07005 620.791 12.6029 623.783 17.2125L625.461 16.1235C622.237 11.1571 617.668 7.38194 611.795 4.79108L610.988 6.62091ZM623.783 17.2125C626.77 21.8134 628.284 27.3292 628.284 33.804H630.284C630.284 27.0068 628.69 21.0986 625.461 16.1235L623.783 17.2125ZM628.284 33.804C628.284 40.192 626.771 45.6666 623.783 50.2695L625.461 51.3585C628.689 46.3854 630.284 40.5199 630.284 33.804H628.284ZM623.787 50.2627C620.796 54.7898 616.544 58.2839 610.988 60.7351L611.795 62.5649C617.663 59.9761 622.231 56.2462 625.456 51.3653L623.787 50.2627ZM610.988 60.7351C605.432 63.1862 598.772 64.43 590.98 64.43V66.43C598.979 66.43 605.927 65.1538 611.795 62.5649L610.988 60.7351ZM590.98 64.43H564.142V66.43H590.98V64.43ZM564.844 66.142L573.916 57.196L572.512 55.772L563.44 64.718L564.844 66.142ZM572.214 56.484V90H574.214V56.484H572.214ZM573.214 89H552.802V91H573.214V89ZM609.695 89.4326L587.645 57.4286L585.998 58.5634L608.048 90.5674L609.695 89.4326ZM586.822 58.996H608.62V56.996H586.822V58.996ZM607.799 58.5677L630.101 90.5717L631.742 89.4283L609.44 57.4243L607.799 58.5677ZM630.922 89H608.872V91H630.922V89ZM573.94 58.0643L564.868 48.4883L563.416 49.8637L572.488 59.4397L573.94 58.0643ZM564.142 50.176H589.846V48.176H564.142V50.176ZM589.846 50.176C596.263 50.176 601.247 48.8106 604.612 45.9004L603.304 44.3876C600.453 46.8534 596.028 48.176 589.846 48.176V50.176ZM604.623 45.8903C607.977 42.8993 609.62 38.8299 609.62 33.804H607.62C607.62 38.3541 606.155 41.8447 603.292 44.3977L604.623 45.8903ZM609.62 33.804C609.62 28.7009 607.981 24.6212 604.612 21.7076L603.304 23.2204C606.151 25.6828 607.62 29.1631 607.62 33.804H609.62ZM604.612 21.7076C601.247 18.7974 596.263 17.432 589.846 17.432V19.432C596.028 19.432 600.453 20.7546 603.304 23.2204L604.612 21.7076ZM589.846 17.432H564.142V19.432H589.846V17.432ZM564.872 19.115L573.944 9.41299L572.483 8.047L563.411 17.749L564.872 19.115ZM572.214 8.72999V58.752H574.214V8.72999H572.214ZM668.892 88.11L668.532 89.043L668.537 89.0447L668.892 88.11ZM653.52 78.534L652.827 79.2551L652.834 79.2618L653.52 78.534ZM643.44 64.044L642.519 64.4346L642.525 64.4463L643.44 64.044ZM643.44 27.756L642.524 27.3537L642.519 27.3654L643.44 27.756ZM669.018 3.68999L668.658 2.75699L668.658 2.75699L669.018 3.68999ZM707.322 3.68999L706.958 4.62125L706.962 4.62299L707.322 3.68999ZM722.568 13.266L721.875 13.9871L721.882 13.9938L722.568 13.266ZM732.774 27.756L731.859 28.1583L731.861 28.1634L732.774 27.756ZM732.774 64.17L733.69 64.5723L733.692 64.5672L732.774 64.17ZM722.568 78.66L723.253 79.3882L723.254 79.3878L722.568 78.66ZM707.322 88.11L706.962 87.177L706.958 87.1788L707.322 88.11ZM699.006 72.108L698.635 71.1795L698.626 71.1828L699.006 72.108ZM707.826 66.312L707.119 65.6049L707.119 65.6049L707.826 66.312ZM713.622 57.366L712.698 56.983L712.694 56.9927L712.69 57.0025L713.622 57.366ZM713.622 34.434L712.69 34.7975L712.694 34.8073L712.698 34.817L713.622 34.434ZM707.826 25.488L707.107 26.183L707.113 26.1891L707.119 26.1951L707.826 25.488ZM699.132 19.692L698.761 20.6205L698.761 20.6205L699.132 19.692ZM677.208 19.692L676.837 18.7635L676.828 18.7668L677.208 19.692ZM668.514 25.488L669.221 26.1951L669.221 26.1951L668.514 25.488ZM662.592 34.434L661.668 34.051L661.664 34.0607L661.66 34.0705L662.592 34.434ZM662.592 57.366L661.658 57.722L661.663 57.7356L661.668 57.749L662.592 57.366ZM668.388 66.312L667.669 67.007L667.675 67.0131L667.681 67.0191L668.388 66.312ZM677.208 72.108L676.837 73.0365L676.837 73.0365L677.208 72.108ZM688.296 90.512C681.434 90.512 675.088 89.3963 669.247 87.1753L668.537 89.0447C674.624 91.3597 681.214 92.512 688.296 92.512V90.512ZM669.252 87.177C663.487 84.9533 658.475 81.8289 654.206 77.8062L652.834 79.2618C657.301 83.4711 662.537 86.7307 668.532 89.043L669.252 87.177ZM654.213 77.8129C650.025 73.7894 646.74 69.0683 644.356 63.6417L642.525 64.4463C645.012 70.1077 648.447 75.0466 652.827 79.2551L654.213 77.8129ZM644.361 63.6534C642.065 58.2435 640.912 52.3297 640.912 45.9H638.912C638.912 52.5743 640.111 58.7565 642.519 64.4345L644.361 63.6534ZM640.912 45.9C640.912 39.4703 642.065 33.5565 644.361 28.1465L642.519 27.3654C640.111 33.0435 638.912 39.2257 638.912 45.9H640.912ZM644.356 28.1583C646.738 22.736 650.062 18.0169 654.332 13.9938L652.96 12.5382C648.494 16.7471 645.014 21.688 642.525 27.3537L644.356 28.1583ZM654.332 13.9938C658.601 9.97107 663.613 6.84673 669.378 4.62299L668.658 2.75699C662.663 5.06926 657.427 8.32892 652.96 12.5382L654.332 13.9938ZM669.378 4.62299C675.133 2.40323 681.394 1.288 688.17 1.288V-0.712002C681.17 -0.712002 674.663 0.440764 668.658 2.75699L669.378 4.62299ZM688.17 1.288C695.032 1.288 701.291 2.40381 706.958 4.62124L707.686 2.75875C701.761 0.440178 695.252 -0.712002 688.17 -0.712002V1.288ZM706.962 4.62299C712.726 6.84613 717.693 9.96866 721.875 13.9871L723.261 12.5449C718.875 8.33133 713.678 5.06985 707.682 2.75699L706.962 4.62299ZM721.882 13.9938C726.152 18.0169 729.476 22.736 731.859 28.1583L733.69 27.3537C731.2 21.688 727.72 16.7471 723.254 12.5382L721.882 13.9938ZM731.861 28.1634C734.234 33.4818 735.428 39.3889 735.428 45.9H737.428C737.428 39.1391 736.186 32.9502 733.687 27.3486L731.861 28.1634ZM735.428 45.9C735.428 52.3248 734.234 58.2786 731.856 63.7728L733.692 64.5672C736.186 58.8054 737.428 52.5792 737.428 45.9H735.428ZM731.859 63.7677C729.476 69.19 726.152 73.9091 721.882 77.9322L723.254 79.3878C727.72 75.1789 731.2 70.238 733.69 64.5723L731.859 63.7677ZM721.883 77.9318C717.699 81.8689 712.73 84.9522 706.962 87.177L707.682 89.043C713.674 86.7318 718.869 83.5151 723.253 79.3882L721.883 77.9318ZM706.958 87.1788C701.29 89.3967 695.073 90.512 688.296 90.512V92.512C695.295 92.512 701.763 91.3593 707.686 89.0412L706.958 87.1788ZM688.17 75.124C692.233 75.124 695.976 74.432 699.386 73.0332L698.626 71.1828C695.484 72.472 692.003 73.124 688.17 73.124V75.124ZM699.377 73.0365C702.861 71.643 705.916 69.6364 708.533 67.0191L707.119 65.6049C704.696 68.0276 701.871 69.885 698.635 71.1795L699.377 73.0365ZM708.533 67.0191C711.155 64.3977 713.161 61.2974 714.554 57.7295L712.69 57.0025C711.395 60.3226 709.538 63.1863 707.119 65.6049L708.533 67.0191ZM714.546 57.749C716.03 54.1692 716.764 50.2149 716.764 45.9H714.764C714.764 49.9851 714.07 53.6748 712.698 56.983L714.546 57.749ZM716.764 45.9C716.764 41.5851 716.03 37.6308 714.546 34.051L712.698 34.817C714.07 38.1252 714.764 41.8149 714.764 45.9H716.764ZM714.554 34.0705C713.161 30.5026 711.155 27.4023 708.533 24.7809L707.119 26.1951C709.538 28.6137 711.395 31.4774 712.69 34.7975L714.554 34.0705ZM708.545 24.793C706.008 22.1682 702.99 20.1582 699.503 18.7635L698.761 20.6205C701.994 21.9138 704.772 23.7678 707.107 26.183L708.545 24.793ZM699.503 18.7635C696.015 17.3681 692.234 16.676 688.17 16.676V18.676C692.002 18.676 695.529 19.3279 698.761 20.6205L699.503 18.7635ZM688.17 16.676C684.106 16.676 680.325 17.3681 676.837 18.7635L677.579 20.6205C680.811 19.3279 684.338 18.676 688.17 18.676V16.676ZM676.828 18.7668C673.429 20.1614 670.42 22.1678 667.807 24.7809L669.221 26.1951C671.648 23.7681 674.435 21.9106 677.588 20.6172L676.828 18.7668ZM667.807 24.7809C665.19 27.3979 663.144 30.4915 661.668 34.051L663.516 34.817C664.896 31.4885 666.798 28.6181 669.221 26.1951L667.807 24.7809ZM661.66 34.0705C660.266 37.645 659.576 41.5924 659.576 45.9H661.576C661.576 41.8076 662.231 38.111 663.524 34.7975L661.66 34.0705ZM659.576 45.9C659.576 50.1267 660.266 54.0705 661.658 57.722L663.527 57.01C662.23 53.6055 661.576 49.9053 661.576 45.9H659.576ZM661.668 57.749C663.141 61.3015 665.14 64.3912 667.669 67.007L669.107 65.617C666.764 63.1928 664.899 60.3185 663.516 56.983L661.668 57.749ZM667.681 67.0191C670.298 69.6364 673.353 71.643 676.837 73.0365L677.579 71.1795C674.343 69.885 671.518 68.0276 669.095 65.6049L667.681 67.0191ZM676.837 73.0365C680.325 74.4319 684.106 75.124 688.17 75.124V73.124C684.338 73.124 680.811 72.4721 677.579 71.1795L676.837 73.0365Z" fill="white"/>
</svg>
